<mxfile host="app.diagrams.net" modified="2020-04-01T00:51:21.729Z" agent="5.0 (X11; Linux x86_64) AppleWebKit/537.36 (KHTML, like Gecko) Chrome/81.0.4044.43 Safari/537.36" etag="NMcuFT7pJFPEAJVDrZbt" version="12.9.6" type="github">
  <diagram id="C5RBs43oDa-KdzZeNtuy" name="Page-1">
    <mxGraphModel dx="1422" dy="806" grid="1" gridSize="10" guides="1" tooltips="1" connect="1" arrows="1" fold="1" page="1" pageScale="1" pageWidth="827" pageHeight="1169" background="#ffffff" math="0" shadow="0">
      <root>
        <mxCell id="WIyWlLk6GJQsqaUBKTNV-0" />
        <mxCell id="WIyWlLk6GJQsqaUBKTNV-1" parent="WIyWlLk6GJQsqaUBKTNV-0" />
        <mxCell id="BVoDwXo_lcOtMgnXCkZF-5" style="edgeStyle=orthogonalEdgeStyle;rounded=0;orthogonalLoop=1;jettySize=auto;html=1;entryX=0.5;entryY=0;entryDx=0;entryDy=0;" parent="WIyWlLk6GJQsqaUBKTNV-1" source="BVoDwXo_lcOtMgnXCkZF-3" target="BVoDwXo_lcOtMgnXCkZF-4" edge="1">
          <mxGeometry relative="1" as="geometry" />
        </mxCell>
        <mxCell id="BVoDwXo_lcOtMgnXCkZF-3" value="INÍCIO" style="strokeWidth=2;html=1;shape=mxgraph.flowchart.terminator;whiteSpace=wrap;" parent="WIyWlLk6GJQsqaUBKTNV-1" vertex="1">
          <mxGeometry x="320" y="2" width="80" height="40" as="geometry" />
        </mxCell>
        <mxCell id="BVoDwXo_lcOtMgnXCkZF-7" style="edgeStyle=orthogonalEdgeStyle;rounded=0;orthogonalLoop=1;jettySize=auto;html=1;" parent="WIyWlLk6GJQsqaUBKTNV-1" source="BVoDwXo_lcOtMgnXCkZF-4" target="BVoDwXo_lcOtMgnXCkZF-6" edge="1">
          <mxGeometry relative="1" as="geometry" />
        </mxCell>
        <mxCell id="BVoDwXo_lcOtMgnXCkZF-4" value="IMPRIMA&lt;br&gt;&quot;Bem vindo ao sistema de gerência do Mercadinho Big Bom, uma explosão de ofertas.&quot;&lt;br&gt;" style="rounded=1;whiteSpace=wrap;html=1;absoluteArcSize=1;arcSize=14;strokeWidth=2;" parent="WIyWlLk6GJQsqaUBKTNV-1" vertex="1">
          <mxGeometry x="240" y="81" width="240" height="80" as="geometry" />
        </mxCell>
        <mxCell id="BVoDwXo_lcOtMgnXCkZF-12" style="edgeStyle=orthogonalEdgeStyle;rounded=0;orthogonalLoop=1;jettySize=auto;html=1;entryX=0.5;entryY=0;entryDx=0;entryDy=0;" parent="WIyWlLk6GJQsqaUBKTNV-1" source="BVoDwXo_lcOtMgnXCkZF-6" target="BVoDwXo_lcOtMgnXCkZF-9" edge="1">
          <mxGeometry relative="1" as="geometry" />
        </mxCell>
        <mxCell id="BVoDwXo_lcOtMgnXCkZF-6" value="IMPRIMA&lt;br&gt;&quot;Digite 1 para cadastro de cliente&lt;br&gt;Digite 2 para cadastro de produto&lt;br&gt;Digite 3 para controle de estoque&quot;" style="rounded=1;whiteSpace=wrap;html=1;absoluteArcSize=1;arcSize=14;strokeWidth=2;" parent="WIyWlLk6GJQsqaUBKTNV-1" vertex="1">
          <mxGeometry x="240" y="201" width="240" height="80" as="geometry" />
        </mxCell>
        <mxCell id="BVoDwXo_lcOtMgnXCkZF-13" style="edgeStyle=orthogonalEdgeStyle;rounded=0;orthogonalLoop=1;jettySize=auto;html=1;" parent="WIyWlLk6GJQsqaUBKTNV-1" source="BVoDwXo_lcOtMgnXCkZF-9" target="BVoDwXo_lcOtMgnXCkZF-11" edge="1">
          <mxGeometry relative="1" as="geometry" />
        </mxCell>
        <mxCell id="BVoDwXo_lcOtMgnXCkZF-9" value="LEIA &quot;opção&quot;" style="rounded=1;whiteSpace=wrap;html=1;absoluteArcSize=1;arcSize=14;strokeWidth=2;" parent="WIyWlLk6GJQsqaUBKTNV-1" vertex="1">
          <mxGeometry x="310" y="321" width="100" height="40" as="geometry" />
        </mxCell>
        <mxCell id="BVoDwXo_lcOtMgnXCkZF-18" style="edgeStyle=orthogonalEdgeStyle;rounded=0;orthogonalLoop=1;jettySize=auto;html=1;entryX=0.5;entryY=0;entryDx=0;entryDy=0;" parent="WIyWlLk6GJQsqaUBKTNV-1" source="BVoDwXo_lcOtMgnXCkZF-11" target="BVoDwXo_lcOtMgnXCkZF-16" edge="1">
          <mxGeometry relative="1" as="geometry" />
        </mxCell>
        <mxCell id="BVoDwXo_lcOtMgnXCkZF-19" style="edgeStyle=orthogonalEdgeStyle;rounded=0;orthogonalLoop=1;jettySize=auto;html=1;entryX=0.5;entryY=0;entryDx=0;entryDy=0;" parent="WIyWlLk6GJQsqaUBKTNV-1" source="BVoDwXo_lcOtMgnXCkZF-11" target="BVoDwXo_lcOtMgnXCkZF-15" edge="1">
          <mxGeometry relative="1" as="geometry">
            <Array as="points">
              <mxPoint x="140" y="426" />
            </Array>
          </mxGeometry>
        </mxCell>
        <mxCell id="BVoDwXo_lcOtMgnXCkZF-20" style="edgeStyle=orthogonalEdgeStyle;rounded=0;orthogonalLoop=1;jettySize=auto;html=1;entryX=0.5;entryY=0;entryDx=0;entryDy=0;" parent="WIyWlLk6GJQsqaUBKTNV-1" source="BVoDwXo_lcOtMgnXCkZF-11" target="BVoDwXo_lcOtMgnXCkZF-17" edge="1">
          <mxGeometry relative="1" as="geometry" />
        </mxCell>
        <mxCell id="BVoDwXo_lcOtMgnXCkZF-23" value="3" style="text;html=1;align=center;verticalAlign=middle;resizable=0;points=[];labelBackgroundColor=#ffffff;" parent="BVoDwXo_lcOtMgnXCkZF-20" vertex="1" connectable="0">
          <mxGeometry x="-0.5767" relative="1" as="geometry">
            <mxPoint x="-41" as="offset" />
          </mxGeometry>
        </mxCell>
        <mxCell id="BVoDwXo_lcOtMgnXCkZF-11" value="opção" style="strokeWidth=2;html=1;shape=mxgraph.flowchart.decision;whiteSpace=wrap;" parent="WIyWlLk6GJQsqaUBKTNV-1" vertex="1">
          <mxGeometry x="331" y="401" width="58" height="50" as="geometry" />
        </mxCell>
        <mxCell id="BVoDwXo_lcOtMgnXCkZF-27" style="edgeStyle=orthogonalEdgeStyle;rounded=0;orthogonalLoop=1;jettySize=auto;html=1;entryX=0.5;entryY=0;entryDx=0;entryDy=0;" parent="WIyWlLk6GJQsqaUBKTNV-1" source="BVoDwXo_lcOtMgnXCkZF-15" target="BVoDwXo_lcOtMgnXCkZF-26" edge="1">
          <mxGeometry relative="1" as="geometry" />
        </mxCell>
        <mxCell id="BVoDwXo_lcOtMgnXCkZF-15" value="ESCREVA&lt;br&gt;&quot;--Cadastro de Clientes--&quot;" style="rounded=1;whiteSpace=wrap;html=1;absoluteArcSize=1;arcSize=14;strokeWidth=2;" parent="WIyWlLk6GJQsqaUBKTNV-1" vertex="1">
          <mxGeometry x="60" y="481" width="160" height="80" as="geometry" />
        </mxCell>
        <mxCell id="BVoDwXo_lcOtMgnXCkZF-61" style="edgeStyle=orthogonalEdgeStyle;rounded=0;orthogonalLoop=1;jettySize=auto;html=1;" parent="WIyWlLk6GJQsqaUBKTNV-1" source="BVoDwXo_lcOtMgnXCkZF-16" target="BVoDwXo_lcOtMgnXCkZF-60" edge="1">
          <mxGeometry relative="1" as="geometry" />
        </mxCell>
        <mxCell id="BVoDwXo_lcOtMgnXCkZF-16" value="ESCREVA&lt;br&gt;&quot;--Cadastro de Produtos--&quot;" style="rounded=1;whiteSpace=wrap;html=1;absoluteArcSize=1;arcSize=14;strokeWidth=2;" parent="WIyWlLk6GJQsqaUBKTNV-1" vertex="1">
          <mxGeometry x="280" y="481" width="160" height="80" as="geometry" />
        </mxCell>
        <mxCell id="BVoDwXo_lcOtMgnXCkZF-83" style="edgeStyle=orthogonalEdgeStyle;rounded=0;orthogonalLoop=1;jettySize=auto;html=1;entryX=0.5;entryY=0;entryDx=0;entryDy=0;" parent="WIyWlLk6GJQsqaUBKTNV-1" source="BVoDwXo_lcOtMgnXCkZF-17" target="BVoDwXo_lcOtMgnXCkZF-82" edge="1">
          <mxGeometry relative="1" as="geometry" />
        </mxCell>
        <mxCell id="BVoDwXo_lcOtMgnXCkZF-17" value="ESCREVA&lt;br&gt;&quot;--Controle de Estoque--&quot;" style="rounded=1;whiteSpace=wrap;html=1;absoluteArcSize=1;arcSize=14;strokeWidth=2;" parent="WIyWlLk6GJQsqaUBKTNV-1" vertex="1">
          <mxGeometry x="560" y="481" width="160" height="80" as="geometry" />
        </mxCell>
        <mxCell id="BVoDwXo_lcOtMgnXCkZF-24" value="2" style="text;html=1;align=center;verticalAlign=middle;resizable=0;points=[];labelBackgroundColor=#ffffff;" parent="WIyWlLk6GJQsqaUBKTNV-1" vertex="1" connectable="0">
          <mxGeometry x="451.5" y="441" as="geometry">
            <mxPoint x="-92.41" y="23" as="offset" />
          </mxGeometry>
        </mxCell>
        <mxCell id="BVoDwXo_lcOtMgnXCkZF-25" value="1" style="text;html=1;align=center;verticalAlign=middle;resizable=0;points=[];labelBackgroundColor=#ffffff;" parent="WIyWlLk6GJQsqaUBKTNV-1" vertex="1" connectable="0">
          <mxGeometry x="360" y="426" as="geometry">
            <mxPoint x="-41" as="offset" />
          </mxGeometry>
        </mxCell>
        <mxCell id="BVoDwXo_lcOtMgnXCkZF-29" style="edgeStyle=orthogonalEdgeStyle;rounded=0;orthogonalLoop=1;jettySize=auto;html=1;entryX=0.5;entryY=0;entryDx=0;entryDy=0;" parent="WIyWlLk6GJQsqaUBKTNV-1" source="BVoDwXo_lcOtMgnXCkZF-26" target="BVoDwXo_lcOtMgnXCkZF-28" edge="1">
          <mxGeometry relative="1" as="geometry" />
        </mxCell>
        <mxCell id="BVoDwXo_lcOtMgnXCkZF-26" value="ESCREVA&lt;br&gt;&quot;Digite o nome do cliente.&quot;" style="rounded=1;whiteSpace=wrap;html=1;absoluteArcSize=1;arcSize=14;strokeWidth=2;" parent="WIyWlLk6GJQsqaUBKTNV-1" vertex="1">
          <mxGeometry x="70" y="601" width="140" height="80" as="geometry" />
        </mxCell>
        <mxCell id="BVoDwXo_lcOtMgnXCkZF-28" value="LEIA&lt;br&gt;&quot;nome&quot;" style="rounded=1;whiteSpace=wrap;html=1;absoluteArcSize=1;arcSize=14;strokeWidth=2;" parent="WIyWlLk6GJQsqaUBKTNV-1" vertex="1">
          <mxGeometry x="80" y="721" width="120" height="40" as="geometry" />
        </mxCell>
        <mxCell id="BVoDwXo_lcOtMgnXCkZF-37" style="edgeStyle=orthogonalEdgeStyle;rounded=0;orthogonalLoop=1;jettySize=auto;html=1;entryX=0.5;entryY=0;entryDx=0;entryDy=0;" parent="WIyWlLk6GJQsqaUBKTNV-1" target="BVoDwXo_lcOtMgnXCkZF-39" edge="1">
          <mxGeometry relative="1" as="geometry">
            <mxPoint x="140" y="761" as="sourcePoint" />
          </mxGeometry>
        </mxCell>
        <mxCell id="BVoDwXo_lcOtMgnXCkZF-38" style="edgeStyle=orthogonalEdgeStyle;rounded=0;orthogonalLoop=1;jettySize=auto;html=1;entryX=0.5;entryY=0;entryDx=0;entryDy=0;" parent="WIyWlLk6GJQsqaUBKTNV-1" source="BVoDwXo_lcOtMgnXCkZF-39" target="BVoDwXo_lcOtMgnXCkZF-40" edge="1">
          <mxGeometry relative="1" as="geometry" />
        </mxCell>
        <mxCell id="BVoDwXo_lcOtMgnXCkZF-39" value="ESCREVA&lt;br&gt;&quot;Digite o CPF do cliente.&quot;" style="rounded=1;whiteSpace=wrap;html=1;absoluteArcSize=1;arcSize=14;strokeWidth=2;" parent="WIyWlLk6GJQsqaUBKTNV-1" vertex="1">
          <mxGeometry x="70" y="801" width="140" height="80" as="geometry" />
        </mxCell>
        <mxCell id="BVoDwXo_lcOtMgnXCkZF-40" value="LEIA&lt;br&gt;&quot;cpf&quot;" style="rounded=1;whiteSpace=wrap;html=1;absoluteArcSize=1;arcSize=14;strokeWidth=2;" parent="WIyWlLk6GJQsqaUBKTNV-1" vertex="1">
          <mxGeometry x="80" y="921" width="120" height="40" as="geometry" />
        </mxCell>
        <mxCell id="BVoDwXo_lcOtMgnXCkZF-41" style="edgeStyle=orthogonalEdgeStyle;rounded=0;orthogonalLoop=1;jettySize=auto;html=1;entryX=0.5;entryY=0;entryDx=0;entryDy=0;" parent="WIyWlLk6GJQsqaUBKTNV-1" target="BVoDwXo_lcOtMgnXCkZF-43" edge="1">
          <mxGeometry relative="1" as="geometry">
            <mxPoint x="140" y="961" as="sourcePoint" />
          </mxGeometry>
        </mxCell>
        <mxCell id="BVoDwXo_lcOtMgnXCkZF-42" style="edgeStyle=orthogonalEdgeStyle;rounded=0;orthogonalLoop=1;jettySize=auto;html=1;entryX=0.5;entryY=0;entryDx=0;entryDy=0;" parent="WIyWlLk6GJQsqaUBKTNV-1" source="BVoDwXo_lcOtMgnXCkZF-43" target="BVoDwXo_lcOtMgnXCkZF-44" edge="1">
          <mxGeometry relative="1" as="geometry" />
        </mxCell>
        <mxCell id="BVoDwXo_lcOtMgnXCkZF-43" value="ESCREVA&lt;br&gt;&quot;Digite o email do cliente.&quot;" style="rounded=1;whiteSpace=wrap;html=1;absoluteArcSize=1;arcSize=14;strokeWidth=2;" parent="WIyWlLk6GJQsqaUBKTNV-1" vertex="1">
          <mxGeometry x="70" y="1001" width="140" height="80" as="geometry" />
        </mxCell>
        <mxCell id="BVoDwXo_lcOtMgnXCkZF-58" style="edgeStyle=orthogonalEdgeStyle;rounded=0;orthogonalLoop=1;jettySize=auto;html=1;entryX=0.5;entryY=0;entryDx=0;entryDy=0;exitX=0.5;exitY=1;exitDx=0;exitDy=0;" parent="WIyWlLk6GJQsqaUBKTNV-1" source="BVoDwXo_lcOtMgnXCkZF-116" target="BVoDwXo_lcOtMgnXCkZF-47" edge="1">
          <mxGeometry relative="1" as="geometry">
            <mxPoint x="140" y="1371" as="sourcePoint" />
            <Array as="points">
              <mxPoint x="140" y="1521" />
              <mxPoint x="360" y="1521" />
            </Array>
          </mxGeometry>
        </mxCell>
        <mxCell id="BVoDwXo_lcOtMgnXCkZF-117" style="edgeStyle=orthogonalEdgeStyle;rounded=0;orthogonalLoop=1;jettySize=auto;html=1;entryX=0.5;entryY=0;entryDx=0;entryDy=0;" parent="WIyWlLk6GJQsqaUBKTNV-1" source="BVoDwXo_lcOtMgnXCkZF-44" target="BVoDwXo_lcOtMgnXCkZF-116" edge="1">
          <mxGeometry relative="1" as="geometry" />
        </mxCell>
        <mxCell id="BVoDwXo_lcOtMgnXCkZF-44" value="LEIA&lt;br&gt;&quot;email&quot;" style="rounded=1;whiteSpace=wrap;html=1;absoluteArcSize=1;arcSize=14;strokeWidth=2;" parent="WIyWlLk6GJQsqaUBKTNV-1" vertex="1">
          <mxGeometry x="80" y="1121" width="120" height="40" as="geometry" />
        </mxCell>
        <mxCell id="BVoDwXo_lcOtMgnXCkZF-50" style="edgeStyle=orthogonalEdgeStyle;rounded=0;orthogonalLoop=1;jettySize=auto;html=1;entryX=0.5;entryY=0;entryDx=0;entryDy=0;" parent="WIyWlLk6GJQsqaUBKTNV-1" source="BVoDwXo_lcOtMgnXCkZF-47" target="BVoDwXo_lcOtMgnXCkZF-49" edge="1">
          <mxGeometry relative="1" as="geometry" />
        </mxCell>
        <mxCell id="BVoDwXo_lcOtMgnXCkZF-47" value="ESCREVA&lt;br&gt;&quot;Deseja fazer mais alguma operação? Digite sim ou não.&quot;" style="rounded=1;whiteSpace=wrap;html=1;absoluteArcSize=1;arcSize=14;strokeWidth=2;" parent="WIyWlLk6GJQsqaUBKTNV-1" vertex="1">
          <mxGeometry x="270" y="1561" width="180" height="80" as="geometry" />
        </mxCell>
        <mxCell id="BVoDwXo_lcOtMgnXCkZF-52" style="edgeStyle=orthogonalEdgeStyle;rounded=0;orthogonalLoop=1;jettySize=auto;html=1;" parent="WIyWlLk6GJQsqaUBKTNV-1" source="BVoDwXo_lcOtMgnXCkZF-49" target="BVoDwXo_lcOtMgnXCkZF-51" edge="1">
          <mxGeometry relative="1" as="geometry" />
        </mxCell>
        <mxCell id="BVoDwXo_lcOtMgnXCkZF-49" value="LEIA&lt;br&gt;&quot;continuar&quot;" style="rounded=1;whiteSpace=wrap;html=1;absoluteArcSize=1;arcSize=14;strokeWidth=2;" parent="WIyWlLk6GJQsqaUBKTNV-1" vertex="1">
          <mxGeometry x="310" y="1681" width="100" height="40" as="geometry" />
        </mxCell>
        <mxCell id="BVoDwXo_lcOtMgnXCkZF-54" style="edgeStyle=orthogonalEdgeStyle;rounded=0;orthogonalLoop=1;jettySize=auto;html=1;entryX=0.5;entryY=0;entryDx=0;entryDy=0;entryPerimeter=0;" parent="WIyWlLk6GJQsqaUBKTNV-1" source="BVoDwXo_lcOtMgnXCkZF-51" target="BVoDwXo_lcOtMgnXCkZF-53" edge="1">
          <mxGeometry relative="1" as="geometry" />
        </mxCell>
        <mxCell id="BVoDwXo_lcOtMgnXCkZF-55" value="Não" style="text;html=1;align=center;verticalAlign=middle;resizable=0;points=[];labelBackgroundColor=#ffffff;" parent="BVoDwXo_lcOtMgnXCkZF-54" vertex="1" connectable="0">
          <mxGeometry x="-0.26" y="2" relative="1" as="geometry">
            <mxPoint x="-2" as="offset" />
          </mxGeometry>
        </mxCell>
        <mxCell id="BVoDwXo_lcOtMgnXCkZF-56" style="edgeStyle=orthogonalEdgeStyle;rounded=0;orthogonalLoop=1;jettySize=auto;html=1;entryX=0.5;entryY=0;entryDx=0;entryDy=0;" parent="WIyWlLk6GJQsqaUBKTNV-1" source="BVoDwXo_lcOtMgnXCkZF-51" target="BVoDwXo_lcOtMgnXCkZF-6" edge="1">
          <mxGeometry relative="1" as="geometry">
            <Array as="points">
              <mxPoint x="20" y="1803" />
              <mxPoint x="20" y="181" />
              <mxPoint x="360" y="181" />
            </Array>
          </mxGeometry>
        </mxCell>
        <mxCell id="BVoDwXo_lcOtMgnXCkZF-57" value="Sim" style="text;html=1;align=center;verticalAlign=middle;resizable=0;points=[];labelBackgroundColor=#ffffff;" parent="BVoDwXo_lcOtMgnXCkZF-56" vertex="1" connectable="0">
          <mxGeometry x="-0.9703" y="-1" relative="1" as="geometry">
            <mxPoint as="offset" />
          </mxGeometry>
        </mxCell>
        <mxCell id="BVoDwXo_lcOtMgnXCkZF-51" value="continuar?" style="strokeWidth=2;html=1;shape=mxgraph.flowchart.decision;whiteSpace=wrap;" parent="WIyWlLk6GJQsqaUBKTNV-1" vertex="1">
          <mxGeometry x="322" y="1765" width="76" height="76" as="geometry" />
        </mxCell>
        <mxCell id="BVoDwXo_lcOtMgnXCkZF-53" value="FIM" style="strokeWidth=2;html=1;shape=mxgraph.flowchart.terminator;whiteSpace=wrap;" parent="WIyWlLk6GJQsqaUBKTNV-1" vertex="1">
          <mxGeometry x="320" y="1881" width="80" height="40" as="geometry" />
        </mxCell>
        <mxCell id="BVoDwXo_lcOtMgnXCkZF-63" style="edgeStyle=orthogonalEdgeStyle;rounded=0;orthogonalLoop=1;jettySize=auto;html=1;entryX=0.5;entryY=0;entryDx=0;entryDy=0;" parent="WIyWlLk6GJQsqaUBKTNV-1" source="BVoDwXo_lcOtMgnXCkZF-60" target="BVoDwXo_lcOtMgnXCkZF-62" edge="1">
          <mxGeometry relative="1" as="geometry" />
        </mxCell>
        <mxCell id="BVoDwXo_lcOtMgnXCkZF-60" value="ESCREVA&lt;br&gt;&quot;Digite o nome do produto.&quot;" style="rounded=1;whiteSpace=wrap;html=1;absoluteArcSize=1;arcSize=14;strokeWidth=2;" parent="WIyWlLk6GJQsqaUBKTNV-1" vertex="1">
          <mxGeometry x="290" y="601" width="140" height="80" as="geometry" />
        </mxCell>
        <mxCell id="BVoDwXo_lcOtMgnXCkZF-67" style="edgeStyle=orthogonalEdgeStyle;rounded=0;orthogonalLoop=1;jettySize=auto;html=1;entryX=0.5;entryY=0;entryDx=0;entryDy=0;" parent="WIyWlLk6GJQsqaUBKTNV-1" source="BVoDwXo_lcOtMgnXCkZF-62" target="BVoDwXo_lcOtMgnXCkZF-65" edge="1">
          <mxGeometry relative="1" as="geometry" />
        </mxCell>
        <mxCell id="BVoDwXo_lcOtMgnXCkZF-62" value="LEIA&lt;br&gt;&quot;nome&quot;" style="rounded=1;whiteSpace=wrap;html=1;absoluteArcSize=1;arcSize=14;strokeWidth=2;" parent="WIyWlLk6GJQsqaUBKTNV-1" vertex="1">
          <mxGeometry x="300" y="721" width="120" height="40" as="geometry" />
        </mxCell>
        <mxCell id="BVoDwXo_lcOtMgnXCkZF-64" style="edgeStyle=orthogonalEdgeStyle;rounded=0;orthogonalLoop=1;jettySize=auto;html=1;entryX=0.5;entryY=0;entryDx=0;entryDy=0;" parent="WIyWlLk6GJQsqaUBKTNV-1" source="BVoDwXo_lcOtMgnXCkZF-65" target="BVoDwXo_lcOtMgnXCkZF-66" edge="1">
          <mxGeometry relative="1" as="geometry" />
        </mxCell>
        <mxCell id="BVoDwXo_lcOtMgnXCkZF-65" value="ESCREVA&lt;br&gt;&quot;Digite o valor do produto.&quot;" style="rounded=1;whiteSpace=wrap;html=1;absoluteArcSize=1;arcSize=14;strokeWidth=2;" parent="WIyWlLk6GJQsqaUBKTNV-1" vertex="1">
          <mxGeometry x="280" y="801" width="160" height="80" as="geometry" />
        </mxCell>
        <mxCell id="BVoDwXo_lcOtMgnXCkZF-66" value="LEIA&lt;br&gt;&quot;valor&quot;" style="rounded=1;whiteSpace=wrap;html=1;absoluteArcSize=1;arcSize=14;strokeWidth=2;" parent="WIyWlLk6GJQsqaUBKTNV-1" vertex="1">
          <mxGeometry x="300" y="921" width="120" height="40" as="geometry" />
        </mxCell>
        <mxCell id="BVoDwXo_lcOtMgnXCkZF-68" style="edgeStyle=orthogonalEdgeStyle;rounded=0;orthogonalLoop=1;jettySize=auto;html=1;entryX=0.5;entryY=0;entryDx=0;entryDy=0;" parent="WIyWlLk6GJQsqaUBKTNV-1" target="BVoDwXo_lcOtMgnXCkZF-70" edge="1">
          <mxGeometry relative="1" as="geometry">
            <mxPoint x="360" y="961" as="sourcePoint" />
          </mxGeometry>
        </mxCell>
        <mxCell id="BVoDwXo_lcOtMgnXCkZF-69" style="edgeStyle=orthogonalEdgeStyle;rounded=0;orthogonalLoop=1;jettySize=auto;html=1;entryX=0.5;entryY=0;entryDx=0;entryDy=0;" parent="WIyWlLk6GJQsqaUBKTNV-1" source="BVoDwXo_lcOtMgnXCkZF-70" target="BVoDwXo_lcOtMgnXCkZF-71" edge="1">
          <mxGeometry relative="1" as="geometry" />
        </mxCell>
        <mxCell id="BVoDwXo_lcOtMgnXCkZF-70" value="ESCREVA&lt;br&gt;&quot;Digite o quantidade do novo produto.&quot;" style="rounded=1;whiteSpace=wrap;html=1;absoluteArcSize=1;arcSize=14;strokeWidth=2;" parent="WIyWlLk6GJQsqaUBKTNV-1" vertex="1">
          <mxGeometry x="280" y="1001" width="160" height="80" as="geometry" />
        </mxCell>
        <mxCell id="BVoDwXo_lcOtMgnXCkZF-75" style="edgeStyle=orthogonalEdgeStyle;rounded=0;orthogonalLoop=1;jettySize=auto;html=1;" parent="WIyWlLk6GJQsqaUBKTNV-1" source="BVoDwXo_lcOtMgnXCkZF-71" target="BVoDwXo_lcOtMgnXCkZF-74" edge="1">
          <mxGeometry relative="1" as="geometry" />
        </mxCell>
        <mxCell id="BVoDwXo_lcOtMgnXCkZF-71" value="LEIA&lt;br&gt;&quot;quantidade&quot;" style="rounded=1;whiteSpace=wrap;html=1;absoluteArcSize=1;arcSize=14;strokeWidth=2;" parent="WIyWlLk6GJQsqaUBKTNV-1" vertex="1">
          <mxGeometry x="300" y="1121" width="120" height="40" as="geometry" />
        </mxCell>
        <mxCell id="BVoDwXo_lcOtMgnXCkZF-79" style="edgeStyle=orthogonalEdgeStyle;rounded=0;orthogonalLoop=1;jettySize=auto;html=1;entryX=0.5;entryY=0;entryDx=0;entryDy=0;" parent="WIyWlLk6GJQsqaUBKTNV-1" source="BVoDwXo_lcOtMgnXCkZF-74" edge="1">
          <mxGeometry relative="1" as="geometry">
            <mxPoint x="360" y="1321" as="targetPoint" />
          </mxGeometry>
        </mxCell>
        <mxCell id="BVoDwXo_lcOtMgnXCkZF-74" value="ESCREVA&lt;br&gt;&quot;Digite/escaneie o código de barras do produto&quot;" style="rounded=1;whiteSpace=wrap;html=1;absoluteArcSize=1;arcSize=14;strokeWidth=2;" parent="WIyWlLk6GJQsqaUBKTNV-1" vertex="1">
          <mxGeometry x="270" y="1201" width="180" height="80" as="geometry" />
        </mxCell>
        <mxCell id="BVoDwXo_lcOtMgnXCkZF-119" style="edgeStyle=orthogonalEdgeStyle;rounded=0;orthogonalLoop=1;jettySize=auto;html=1;entryX=0.5;entryY=0;entryDx=0;entryDy=0;" parent="WIyWlLk6GJQsqaUBKTNV-1" source="BVoDwXo_lcOtMgnXCkZF-76" target="BVoDwXo_lcOtMgnXCkZF-118" edge="1">
          <mxGeometry relative="1" as="geometry" />
        </mxCell>
        <mxCell id="BVoDwXo_lcOtMgnXCkZF-76" value="LEIA&lt;br&gt;&quot;codigo&quot;" style="rounded=1;whiteSpace=wrap;html=1;absoluteArcSize=1;arcSize=14;strokeWidth=2;" parent="WIyWlLk6GJQsqaUBKTNV-1" vertex="1">
          <mxGeometry x="300" y="1321" width="120" height="40" as="geometry" />
        </mxCell>
        <mxCell id="BVoDwXo_lcOtMgnXCkZF-85" style="edgeStyle=orthogonalEdgeStyle;rounded=0;orthogonalLoop=1;jettySize=auto;html=1;" parent="WIyWlLk6GJQsqaUBKTNV-1" source="BVoDwXo_lcOtMgnXCkZF-82" target="BVoDwXo_lcOtMgnXCkZF-84" edge="1">
          <mxGeometry relative="1" as="geometry" />
        </mxCell>
        <mxCell id="BVoDwXo_lcOtMgnXCkZF-82" value="ESCREVA&lt;br&gt;&quot;Digite 1 para adicionar ao estoque.&lt;br&gt;Digite 2 para remover do estoque.&quot;" style="rounded=1;whiteSpace=wrap;html=1;absoluteArcSize=1;arcSize=14;strokeWidth=2;" parent="WIyWlLk6GJQsqaUBKTNV-1" vertex="1">
          <mxGeometry x="540" y="601" width="200" height="80" as="geometry" />
        </mxCell>
        <mxCell id="BVoDwXo_lcOtMgnXCkZF-89" style="edgeStyle=orthogonalEdgeStyle;rounded=0;orthogonalLoop=1;jettySize=auto;html=1;entryX=0.5;entryY=0;entryDx=0;entryDy=0;entryPerimeter=0;" parent="WIyWlLk6GJQsqaUBKTNV-1" source="BVoDwXo_lcOtMgnXCkZF-84" target="BVoDwXo_lcOtMgnXCkZF-88" edge="1">
          <mxGeometry relative="1" as="geometry" />
        </mxCell>
        <mxCell id="BVoDwXo_lcOtMgnXCkZF-84" value="LEIA&lt;br&gt;&quot;opcao&quot;" style="rounded=1;whiteSpace=wrap;html=1;absoluteArcSize=1;arcSize=14;strokeWidth=2;" parent="WIyWlLk6GJQsqaUBKTNV-1" vertex="1">
          <mxGeometry x="580" y="721" width="120" height="40" as="geometry" />
        </mxCell>
        <mxCell id="BVoDwXo_lcOtMgnXCkZF-91" value="1" style="edgeStyle=orthogonalEdgeStyle;rounded=0;orthogonalLoop=1;jettySize=auto;html=1;entryX=0.5;entryY=0;entryDx=0;entryDy=0;" parent="WIyWlLk6GJQsqaUBKTNV-1" source="BVoDwXo_lcOtMgnXCkZF-88" target="BVoDwXo_lcOtMgnXCkZF-90" edge="1">
          <mxGeometry relative="1" as="geometry">
            <Array as="points">
              <mxPoint x="550" y="841" />
            </Array>
          </mxGeometry>
        </mxCell>
        <mxCell id="BVoDwXo_lcOtMgnXCkZF-93" style="edgeStyle=orthogonalEdgeStyle;rounded=0;orthogonalLoop=1;jettySize=auto;html=1;entryX=0.5;entryY=0;entryDx=0;entryDy=0;" parent="WIyWlLk6GJQsqaUBKTNV-1" source="BVoDwXo_lcOtMgnXCkZF-88" target="BVoDwXo_lcOtMgnXCkZF-92" edge="1">
          <mxGeometry relative="1" as="geometry">
            <Array as="points">
              <mxPoint x="640" y="841" />
              <mxPoint x="720" y="841" />
            </Array>
          </mxGeometry>
        </mxCell>
        <mxCell id="BVoDwXo_lcOtMgnXCkZF-94" value="2" style="text;html=1;align=center;verticalAlign=middle;resizable=0;points=[];labelBackgroundColor=#ffffff;" parent="BVoDwXo_lcOtMgnXCkZF-93" vertex="1" connectable="0">
          <mxGeometry x="0.3796" y="-1" relative="1" as="geometry">
            <mxPoint as="offset" />
          </mxGeometry>
        </mxCell>
        <mxCell id="BVoDwXo_lcOtMgnXCkZF-88" value="opcao?" style="strokeWidth=2;html=1;shape=mxgraph.flowchart.decision;whiteSpace=wrap;" parent="WIyWlLk6GJQsqaUBKTNV-1" vertex="1">
          <mxGeometry x="602" y="801" width="76" height="76" as="geometry" />
        </mxCell>
        <mxCell id="BVoDwXo_lcOtMgnXCkZF-98" style="edgeStyle=orthogonalEdgeStyle;rounded=0;orthogonalLoop=1;jettySize=auto;html=1;entryX=0.5;entryY=0;entryDx=0;entryDy=0;" parent="WIyWlLk6GJQsqaUBKTNV-1" source="BVoDwXo_lcOtMgnXCkZF-90" target="BVoDwXo_lcOtMgnXCkZF-97" edge="1">
          <mxGeometry relative="1" as="geometry" />
        </mxCell>
        <mxCell id="BVoDwXo_lcOtMgnXCkZF-90" value="ESCREVA&lt;br&gt;&quot;Digite o código do produto.&quot;" style="rounded=1;whiteSpace=wrap;html=1;absoluteArcSize=1;arcSize=14;strokeWidth=2;" parent="WIyWlLk6GJQsqaUBKTNV-1" vertex="1">
          <mxGeometry x="470" y="881" width="160" height="80" as="geometry" />
        </mxCell>
        <mxCell id="BVoDwXo_lcOtMgnXCkZF-92" value="ESCREVA&lt;br&gt;&quot;Digite o código do produto.&quot;" style="rounded=1;whiteSpace=wrap;html=1;absoluteArcSize=1;arcSize=14;strokeWidth=2;" parent="WIyWlLk6GJQsqaUBKTNV-1" vertex="1">
          <mxGeometry x="650" y="881" width="160" height="80" as="geometry" />
        </mxCell>
        <mxCell id="BVoDwXo_lcOtMgnXCkZF-104" style="edgeStyle=orthogonalEdgeStyle;rounded=0;orthogonalLoop=1;jettySize=auto;html=1;" parent="WIyWlLk6GJQsqaUBKTNV-1" source="BVoDwXo_lcOtMgnXCkZF-97" target="BVoDwXo_lcOtMgnXCkZF-103" edge="1">
          <mxGeometry relative="1" as="geometry" />
        </mxCell>
        <mxCell id="BVoDwXo_lcOtMgnXCkZF-97" value="LEIA&lt;br&gt;&quot;codigo&quot;" style="rounded=1;whiteSpace=wrap;html=1;absoluteArcSize=1;arcSize=14;strokeWidth=2;" parent="WIyWlLk6GJQsqaUBKTNV-1" vertex="1">
          <mxGeometry x="490" y="1001" width="120" height="40" as="geometry" />
        </mxCell>
        <mxCell id="BVoDwXo_lcOtMgnXCkZF-101" style="edgeStyle=orthogonalEdgeStyle;rounded=0;orthogonalLoop=1;jettySize=auto;html=1;entryX=0.5;entryY=0;entryDx=0;entryDy=0;" parent="WIyWlLk6GJQsqaUBKTNV-1" target="BVoDwXo_lcOtMgnXCkZF-102" edge="1">
          <mxGeometry relative="1" as="geometry">
            <mxPoint x="730" y="961" as="sourcePoint" />
          </mxGeometry>
        </mxCell>
        <mxCell id="BVoDwXo_lcOtMgnXCkZF-106" style="edgeStyle=orthogonalEdgeStyle;rounded=0;orthogonalLoop=1;jettySize=auto;html=1;entryX=0.5;entryY=0;entryDx=0;entryDy=0;" parent="WIyWlLk6GJQsqaUBKTNV-1" source="BVoDwXo_lcOtMgnXCkZF-102" target="BVoDwXo_lcOtMgnXCkZF-105" edge="1">
          <mxGeometry relative="1" as="geometry" />
        </mxCell>
        <mxCell id="BVoDwXo_lcOtMgnXCkZF-102" value="LEIA&lt;br&gt;&quot;codigo&quot;" style="rounded=1;whiteSpace=wrap;html=1;absoluteArcSize=1;arcSize=14;strokeWidth=2;" parent="WIyWlLk6GJQsqaUBKTNV-1" vertex="1">
          <mxGeometry x="670" y="1001" width="120" height="40" as="geometry" />
        </mxCell>
        <mxCell id="BVoDwXo_lcOtMgnXCkZF-108" style="edgeStyle=orthogonalEdgeStyle;rounded=0;orthogonalLoop=1;jettySize=auto;html=1;entryX=0.5;entryY=0;entryDx=0;entryDy=0;" parent="WIyWlLk6GJQsqaUBKTNV-1" source="BVoDwXo_lcOtMgnXCkZF-103" target="BVoDwXo_lcOtMgnXCkZF-107" edge="1">
          <mxGeometry relative="1" as="geometry" />
        </mxCell>
        <mxCell id="BVoDwXo_lcOtMgnXCkZF-103" value="ESCREVA&lt;br&gt;&quot;Digite a quantia a ser adicionada&amp;nbsp;ao estoque.&quot;" style="rounded=1;whiteSpace=wrap;html=1;absoluteArcSize=1;arcSize=14;strokeWidth=2;" parent="WIyWlLk6GJQsqaUBKTNV-1" vertex="1">
          <mxGeometry x="470" y="1081" width="160" height="80" as="geometry" />
        </mxCell>
        <mxCell id="BVoDwXo_lcOtMgnXCkZF-110" style="edgeStyle=orthogonalEdgeStyle;rounded=0;orthogonalLoop=1;jettySize=auto;html=1;entryX=0.5;entryY=0;entryDx=0;entryDy=0;" parent="WIyWlLk6GJQsqaUBKTNV-1" source="BVoDwXo_lcOtMgnXCkZF-105" target="BVoDwXo_lcOtMgnXCkZF-109" edge="1">
          <mxGeometry relative="1" as="geometry" />
        </mxCell>
        <mxCell id="BVoDwXo_lcOtMgnXCkZF-105" value="ESCREVA&lt;br&gt;&quot;Digite a quantia a ser removida do estoque.&quot;" style="rounded=1;whiteSpace=wrap;html=1;absoluteArcSize=1;arcSize=14;strokeWidth=2;" parent="WIyWlLk6GJQsqaUBKTNV-1" vertex="1">
          <mxGeometry x="650" y="1081" width="160" height="80" as="geometry" />
        </mxCell>
        <mxCell id="BVoDwXo_lcOtMgnXCkZF-124" style="edgeStyle=orthogonalEdgeStyle;rounded=0;orthogonalLoop=1;jettySize=auto;html=1;" parent="WIyWlLk6GJQsqaUBKTNV-1" source="BVoDwXo_lcOtMgnXCkZF-107" target="BVoDwXo_lcOtMgnXCkZF-123" edge="1">
          <mxGeometry relative="1" as="geometry" />
        </mxCell>
        <mxCell id="BVoDwXo_lcOtMgnXCkZF-107" value="LEIA&lt;br&gt;&quot;quantia&quot;" style="rounded=1;whiteSpace=wrap;html=1;absoluteArcSize=1;arcSize=14;strokeWidth=2;" parent="WIyWlLk6GJQsqaUBKTNV-1" vertex="1">
          <mxGeometry x="490" y="1201" width="120" height="40" as="geometry" />
        </mxCell>
        <mxCell id="BVoDwXo_lcOtMgnXCkZF-125" style="edgeStyle=orthogonalEdgeStyle;rounded=0;orthogonalLoop=1;jettySize=auto;html=1;" parent="WIyWlLk6GJQsqaUBKTNV-1" source="BVoDwXo_lcOtMgnXCkZF-109" target="BVoDwXo_lcOtMgnXCkZF-123" edge="1">
          <mxGeometry relative="1" as="geometry" />
        </mxCell>
        <mxCell id="BVoDwXo_lcOtMgnXCkZF-109" value="LEIA&lt;br&gt;&quot;quantia&quot;" style="rounded=1;whiteSpace=wrap;html=1;absoluteArcSize=1;arcSize=14;strokeWidth=2;" parent="WIyWlLk6GJQsqaUBKTNV-1" vertex="1">
          <mxGeometry x="670" y="1201" width="120" height="40" as="geometry" />
        </mxCell>
        <mxCell id="BVoDwXo_lcOtMgnXCkZF-116" value="SALVAR base_cliente" style="rounded=1;whiteSpace=wrap;html=1;absoluteArcSize=1;arcSize=14;strokeWidth=2;" parent="WIyWlLk6GJQsqaUBKTNV-1" vertex="1">
          <mxGeometry x="70" y="1201" width="140" height="80" as="geometry" />
        </mxCell>
        <mxCell id="BVoDwXo_lcOtMgnXCkZF-122" style="edgeStyle=orthogonalEdgeStyle;rounded=0;orthogonalLoop=1;jettySize=auto;html=1;entryX=0.5;entryY=0;entryDx=0;entryDy=0;" parent="WIyWlLk6GJQsqaUBKTNV-1" source="BVoDwXo_lcOtMgnXCkZF-118" target="BVoDwXo_lcOtMgnXCkZF-47" edge="1">
          <mxGeometry relative="1" as="geometry" />
        </mxCell>
        <mxCell id="BVoDwXo_lcOtMgnXCkZF-118" value="SALVAR base_produto" style="rounded=1;whiteSpace=wrap;html=1;absoluteArcSize=1;arcSize=14;strokeWidth=2;" parent="WIyWlLk6GJQsqaUBKTNV-1" vertex="1">
          <mxGeometry x="280" y="1401" width="160" height="80" as="geometry" />
        </mxCell>
        <mxCell id="BVoDwXo_lcOtMgnXCkZF-127" style="edgeStyle=orthogonalEdgeStyle;rounded=0;orthogonalLoop=1;jettySize=auto;html=1;entryX=0.5;entryY=0;entryDx=0;entryDy=0;" parent="WIyWlLk6GJQsqaUBKTNV-1" source="BVoDwXo_lcOtMgnXCkZF-123" target="BVoDwXo_lcOtMgnXCkZF-47" edge="1">
          <mxGeometry relative="1" as="geometry">
            <Array as="points">
              <mxPoint x="640" y="1521" />
              <mxPoint x="360" y="1521" />
            </Array>
          </mxGeometry>
        </mxCell>
        <mxCell id="BVoDwXo_lcOtMgnXCkZF-123" value="SALVAR base_produto" style="rounded=1;whiteSpace=wrap;html=1;absoluteArcSize=1;arcSize=14;strokeWidth=2;" parent="WIyWlLk6GJQsqaUBKTNV-1" vertex="1">
          <mxGeometry x="560" y="1281" width="160" height="80" as="geometry" />
        </mxCell>
      </root>
    </mxGraphModel>
  </diagram>
</mxfile>
